<?xml version="1.0" standalone="no"?>
   <!DOCTYPE svg PUBLIC "-//W3C//DTD SVG 1.1//EN" 
   "http://www.w3.org/Graphics/SVG/1.1/DTD/svg11.dtd"><svg id="svg" version="1.1" width="3807" height="6048" xmlns="http://www.w3.org/2000/svg"><path d="M2182.893 506.364 C 2177.366 515.307,2149.790 704.421,2122.433 921.000 C 2094.013 1145.998,2040.530 1591.530,2041.791 1592.791 C 2044.222 1595.222,2128.126 1604.547,2167.500 1606.762 C 2249.123 1611.352,2344.294 1592.319,2381.458 1563.972 C 2408.472 1543.368,2422.866 1472.778,2453.839 1209.000 C 2485.002 943.605,2486.745 897.780,2467.292 855.227 C 2456.873 832.436,2430.302 793.806,2410.389 772.500 C 2389.633 750.293,2378.200 731.712,2354.779 682.128 C 2288.593 542.001,2275.602 524.149,2229.448 509.893 C 2210.088 503.913,2185.557 502.054,2182.893 506.364 M3099.342 1570.088 C 3093.151 1577.547,3090.501 1605.714,3088.859 1681.500 C 3086.737 1779.389,3082.662 1796.162,3056.847 1813.245 C 3037.956 1825.746,3016.303 1832.953,2989.454 1835.674 C 2959.690 1838.691,2947.088 1845.389,2934.948 1864.644 C 2925.014 1880.399,2919.718 1882.733,2905.530 1877.602 C 2897.158 1874.575,2891.848 1874.553,2879.268 1877.492 C 2838.706 1886.968,2803.436 1888.064,2710.500 1882.735 C 2604.521 1876.659,2557.650 1878.914,2523.611 1891.726 C 2495.985 1902.124,2464.208 1909.753,2424.664 1915.481 C 2383.186 1921.489,2360.806 1928.915,2346.607 1941.381 C 2313.101 1970.801,2249.681 1983.440,2140.500 1982.458 C 2069.135 1981.816,2048.371 1985.054,2011.399 2002.592 C 1981.708 2016.676,1964.410 2033.245,1939.581 2071.383 C 1927.723 2089.597,1910.921 2113.275,1902.245 2124.000 C 1873.067 2160.065,1872.512 2165.626,1894.447 2202.188 C 1901.889 2214.592,1909.378 2231.827,1911.312 2241.000 C 1915.548 2261.088,1913.252 2334.526,1906.764 2386.500 C 1877.324 2622.328,1875.021 2670.904,1891.574 2706.899 C 1900.988 2727.367,1900.171 2733.483,1885.452 2752.767 C 1864.139 2780.688,1850.127 2858.811,1849.718 2952.000 C 1849.438 3015.636,1851.734 3031.090,1864.659 3052.554 C 1879.664 3077.473,1883.121 3090.817,1876.992 3100.170 C 1873.781 3105.071,1868.768 3107.934,1862.308 3108.556 C 1838.883 3110.811,1833.430 3148.435,1813.478 3445.500 C 1802.200 3613.403,1780.062 3918.186,1752.137 4290.000 C 1740.187 4449.107,1735.634 4523.688,1737.714 4526.262 C 1739.477 4528.443,1745.955 4529.704,1753.127 4529.262 L 1765.500 4528.500 1765.223 4566.000 C 1764.904 4609.186,1761.864 4634.165,1735.467 4810.500 C 1705.421 5011.219,1701.042 5051.313,1701.066 5125.500 C 1701.091 5201.978,1717.746 5377.425,1728.406 5413.500 C 1754.646 5502.298,1833.844 5583.512,1830.345 5518.034 C 1830.155 5514.477,1825.275 5505.912,1819.500 5499.000 C 1807.973 5485.203,1805.747 5471.447,1813.405 5461.323 C 1822.488 5449.315,1819.596 5447.231,1797.000 5449.500 C 1778.712 5451.337,1776.000 5450.976,1776.000 5446.710 C 1776.000 5444.015,1784.612 5425.082,1795.139 5404.636 C 1821.165 5354.083,1824.769 5329.190,1811.765 5289.788 C 1809.722 5283.598,1808.886 5270.290,1809.758 5257.839 C 1810.965 5240.595,1813.770 5231.318,1824.376 5209.500 L 1837.500 5182.500 1837.831 5139.000 C 1838.211 5089.013,1840.373 5081.820,1866.583 5043.359 C 1885.187 5016.060,1895.043 4994.648,1908.865 4951.500 C 1931.126 4882.009,1940.268 4809.742,1931.154 4775.316 C 1925.304 4753.221,1928.560 4739.553,1944.175 4720.656 C 1958.139 4703.759,1960.723 4692.357,1956.320 4667.076 C 1951.745 4640.802,1952.070 4609.071,1957.987 4504.500 C 1963.912 4399.785,1961.465 4343.531,1949.861 4317.720 C 1940.916 4297.823,1939.157 4273.874,1945.132 4253.323 C 1952.176 4229.090,1951.523 4219.136,1942.500 4213.224 C 1932.778 4206.854,1932.396 4189.234,1941.450 4164.863 C 1952.827 4134.242,1965.498 4115.604,1998.769 4080.556 C 2029.504 4048.180,2032.453 4043.934,2052.040 4003.891 C 2119.242 3866.504,2153.402 3656.166,2132.992 3505.442 C 2114.196 3366.640,2120.612 3059.846,2149.398 2721.000 C 2168.542 2495.646,2173.060 2446.342,2174.747 2444.365 C 2175.750 2443.190,2199.505 2439.460,2227.535 2436.075 C 2319.331 2424.989,2364.372 2413.827,2420.664 2388.210 C 2470.080 2365.723,2485.856 2362.999,2563.056 2363.623 C 2637.092 2364.222,2654.239 2362.012,2689.809 2347.287 C 2765.653 2315.892,3079.514 2253.013,3189.000 2247.280 C 3236.000 2244.819,3246.153 2241.810,3258.074 2226.810 C 3264.254 2219.033,3264.578 2216.286,3263.121 2184.000 C 3261.220 2141.883,3250.620 2098.404,3235.585 2071.050 C 3229.763 2060.459,3225.000 2047.952,3225.000 2043.258 C 3225.000 2038.563,3229.541 2026.122,3235.091 2015.611 C 3240.642 2005.100,3252.220 1983.269,3260.821 1967.098 C 3271.497 1947.023,3278.842 1928.037,3283.972 1907.251 C 3292.849 1871.288,3299.606 1856.746,3314.992 1840.500 C 3321.242 1833.900,3327.255 1825.499,3328.354 1821.831 C 3333.542 1804.521,3304.931 1766.431,3256.370 1725.995 C 3218.613 1694.556,3159.644 1651.902,3141.750 1643.086 L 3129.000 1636.804 3129.000 1613.850 C 3129.000 1601.225,3127.508 1586.615,3125.684 1581.384 C 3120.807 1567.392,3106.626 1561.312,3099.342 1570.088 M792.000 1889.740 C 782.925 1891.054,763.185 1896.376,748.133 1901.568 C 716.162 1912.596,680.041 1916.964,648.000 1913.678 C 608.093 1909.586,545.861 1910.585,526.380 1915.632 C 490.159 1925.015,475.555 1941.491,475.973 1972.500 C 476.299 1996.629,484.620 2014.443,506.601 2038.071 C 529.649 2062.846,533.710 2071.151,537.036 2100.317 C 540.392 2129.743,558.499 2177.046,588.544 2234.877 C 636.182 2326.574,663.983 2358.000,697.463 2358.000 C 703.826 2358.000,720.613 2355.814,734.766 2353.143 C 756.193 2349.099,774.809 2348.559,846.000 2349.917 C 893.025 2350.814,954.450 2353.836,982.500 2356.634 C 1013.044 2359.680,1062.981 2361.876,1107.000 2362.110 L 1180.500 2362.500 1196.811 2354.420 C 1205.782 2349.975,1214.219 2347.017,1215.561 2347.847 C 1216.902 2348.676,1218.000 2354.700,1218.000 2361.235 C 1218.000 2413.472,1292.543 3034.325,1321.708 3225.000 C 1329.762 3277.652,1364.104 3414.537,1375.147 3438.000 C 1385.076 3459.099,1390.806 3457.469,1393.098 3432.893 C 1398.816 3371.581,1405.178 3211.579,1411.505 2970.000 C 1422.342 2556.180,1434.259 2325.011,1455.272 2121.000 C 1465.630 2020.440,1469.544 1932.306,1464.249 1918.853 C 1461.049 1910.720,1460.073 1910.311,1447.848 1911.987 C 1440.699 1912.967,1415.421 1920.216,1391.675 1928.096 C 1348.607 1942.387,1348.399 1942.423,1308.000 1942.353 C 1271.481 1942.291,1263.018 1941.181,1221.905 1931.064 C 1149.811 1913.324,1082.772 1902.446,987.000 1892.948 C 945.821 1888.865,813.135 1886.682,792.000 1889.740 " stroke="none" fill="black" fill-rule="evenodd"/></svg>